# xmcd
#
# Track frame offsets:
#	150
#	11320
#	21303
#	34437
#	48945
#	61118
#	72793
#	85094
#	115751
#	128298
#	138237
#	152873
#	166986
#	180531
#	193112
#	205600
#	216434
#	227144
#	238114
#	250863
#	260205
#	273604
#	284074
#	295970
#	312404
#	325572
#	338762
#
# Disc length: 4684 seconds
#
# Revision: 0
# Processed by: cddbd v1.5.2PL0 Copyright (c) Steve Scherf et al.
# Submitted via: FairStars CD Ripper 1.80
#
DISCID=8e124a1b
DTITLE=Various Artist - Out of many, One music cd2
DYEAR=2015
DGENRE=Oldies
TTITLE0=Louis Jordan - Time Marches On
TTITLE1=The Five Keys - Ling, Ting, Tong
TTITLE2=Lynn Hope - South Of The Border
TTITLE3=The Moonglows - Sincerely
TTITLE4=Jaye P. Morgan - That's All I Want From You
TTITLE5=The Staple Singers - Won't You Sit Down
TTITLE6=Bo Diddley - She's Fine, She's Mine
TTITLE7=Sonny Rollins - St. Thomas
TTITLE8=The Spaniels - You Gave Me Peace Of Mind
TTITLE9=Clyde McPhatter - Treasure Of Love
TTITLE10=The Teen Queens - Eddie My Love
TTITLE11=Nat King Cole - It's All In The Game
TTITLE12=Donnie Elbert - What Can I Do
TTITLE13=Sam Cooke - You Send Me
TTITLE14=The Rays - Silhouettes
TTITLE15=Donnie Elbert - Leona
TTITLE16=Arthur Lyman - China Clipper
TTITLE17=Wade Flemons - Here I Stand
TTITLE18=Jimmy Scott - I May Never (See My Baby Anymore)
TTITLE19=Dave 'Baby' Cortez - The Happy Organ
TTITLE20=Rosita Rosano - Little Boy
TTITLE21=Little Anthony and The Imperials - Tears On My Pillow
TTITLE22=Jimmie Rodgers - Secretly
TTITLE23=Nina Simone - My Baby Just Cares For Me
TTITLE24=Dave Brubeck Quartet - Take Five
TTITLE25=Jo Ann Campbell - Mama (Can I Go Out Tonight)
TTITLE26=Frankie Ford - Sea Cruise
EXTD=
EXTT0=
EXTT1=
EXTT2=
EXTT3=
EXTT4=
EXTT5=
EXTT6=
EXTT7=
EXTT8=
EXTT9=
EXTT10=
EXTT11=
EXTT12=
EXTT13=
EXTT14=
EXTT15=
EXTT16=
EXTT17=
EXTT18=
EXTT19=
EXTT20=
EXTT21=
EXTT22=
EXTT23=
EXTT24=
EXTT25=
EXTT26=
PLAYORDER=
